<?xml version="1.0" standalone="no"?><!DOCTYPE svg PUBLIC "-//W3C//DTD SVG 1.1//EN" "http://www.w3.org/Graphics/SVG/1.1/DTD/svg11.dtd"><svg t="1686903385416" class="icon" viewBox="0 0 1024 1024" version="1.1" xmlns="http://www.w3.org/2000/svg" p-id="2388" xmlns:xlink="http://www.w3.org/1999/xlink" width="200" height="200"><path d="M962.112 306.752l-317.12-183.488a266.24 266.24 0 0 0-266.048 0L61.888 306.752a59.648 59.648 0 0 0 0 103.424L224 504v252.16c0 242.24 576 234.24 576 0V504.064l64-37.056v162.944h64V429.952l34.112-19.712a59.712 59.712 0 0 0 0-103.488z m-551.04-128a201.984 201.984 0 0 1 201.856 0L923.776 358.4 612.992 538.368a202.24 202.24 0 0 1-201.984 0L100.224 358.4z m324.928 577.408c0 100.736-247.104 159.296-388.992 77.184a97.92 97.92 0 0 1-59.008-77.184V541.056l91.008 52.672a265.792 265.792 0 0 0 265.984 0l91.008-52.672z" p-id="2389"></path></svg>